<?xml version="1.0" encoding="UTF-8"?>
<svg width="55px" height="55px" viewBox="0 0 55 55" version="1.1" xmlns="http://www.w3.org/2000/svg" xmlns:xlink="http://www.w3.org/1999/xlink">
    <!-- Generator: Sketch 57.1 (83088) - https://sketch.com -->
    <title>Messenger_Logo_Color_RGB</title>
    <desc>Created with Sketch.</desc>
    <defs>
        <linearGradient x1="50%" y1="0%" x2="50%" y2="100.001258%" id="linearGradient-1">
            <stop stop-color="#00B2FF" offset="0%"></stop>
            <stop stop-color="#006AFF" offset="100%"></stop>
        </linearGradient>
    </defs>
    <g id="Page-1" stroke="none" stroke-width="1" fill="none" fill-rule="evenodd">
        <g id="Messenger_Logo_Color_RGB">
            <path d="M27.5,0 C12.0070423,0 0,11.3487354 0,26.6758915 C0,34.6935987 3.28672032,41.6212519 8.63732394,46.4075299 C9.08551308,46.8114586 9.35663984,47.3703188 9.37877264,47.9734451 L9.52816901,52.8648552 C9.57796781,54.4252372 11.1881288,55.4378255 12.6156942,54.812566 L18.0714286,52.4055939 C18.5362173,52.2008629 19.0508048,52.16213 19.5377264,52.2949285 C22.0442656,52.9865872 24.7168008,53.3517829 27.5,53.3517829 C42.9929577,53.3517829 55,42.0030475 55,26.6758915 C55,11.3487354 42.9929577,0 27.5,0 Z" id="Bubble_Solid_3_" fill="url(#linearGradient-1)"></path>
            <path d="M11.2183976,34.2045868 L19.453699,20.8752547 C20.7623223,18.7572952 23.5713498,18.2278054 25.5342846,19.7299451 L32.0830415,24.742833 C32.6865875,25.2032589 33.5101177,25.1975036 34.1080231,24.7370776 L42.9525113,17.8882412 C44.1314003,16.9731446 45.6769295,18.4177311 44.8816024,19.6954132 L36.6519416,33.0189899 C35.3433183,35.1369494 32.5342909,35.6664393 30.571356,34.1642996 L24.0225991,29.1514117 C23.4190531,28.6909857 22.5955229,28.6967411 21.9976175,29.157167 L13.1474887,36.0117588 C11.9685997,36.9268554 10.4230705,35.4822689 11.2183976,34.2045868 Z" id="Bolt_4_" fill="#FFFFFF"></path>
        </g>
    </g>
</svg>