<svg xmlns="http://www.w3.org/2000/svg" width="40" height="40" viewBox="0 0 70 70">
    <defs>
        <radialGradient id="a" cx="59.515%" cy="18.794%" r="93.489%" fx="59.515%" fy="18.794%" gradientTransform="scale(-.79092 -1) rotate(-89.382 -.269 .681)">
            <stop offset="5%" stop-color="#F5F6F7"/>
            <stop offset="74%" stop-color="#F1F9FB"/>
            <stop offset="100%" stop-color="#EEEFF1"/>
        </radialGradient>
    </defs>
    <g fill="none" fill-rule="evenodd" transform="translate(-1)">
        <rect width="60" height="55" x=".674" fill="#79D0E9" fill-rule="nonzero" rx="10.03"/>
        <g fill="#FFF" fill-rule="nonzero">
            <path d="M10.029 49.18l-2.697-7.742a2.663 2.663 0 0 1-.14-.759c.007-.386.17-.753.452-1.017a1.44 1.44 0 0 1 1.046-.388c.728-.003 1.361.5 1.522 1.208l1.686 5.57 1.729-5.56a1.653 1.653 0 0 1 1.602-1.25h.188c.759-.001 1.42.515 1.601 1.25l1.753 5.578 1.724-5.62a1.535 1.535 0 0 1 1.503-1.19c.387-.014.764.131 1.04.403.276.27.429.644.42 1.03-.008.216-.043.43-.103.637l-2.776 7.85c-.329.937-.968 1.406-1.729 1.406h-.103a1.718 1.718 0 0 1-1.686-1.33l-1.748-5.542-1.77 5.537a1.718 1.718 0 0 1-1.687 1.335h-.099c-.76 0-1.4-.436-1.728-1.406zM23.149 47.218v-.038c0-2.402 1.832-3.508 4.443-3.508a7.832 7.832 0 0 1 2.692.469v-.183c0-1.293-.799-2.01-2.349-2.01a7.103 7.103 0 0 0-2.16.31 1.31 1.31 0 0 1-.47.08 1.275 1.275 0 0 1-1.287-1.289c0-.54.337-1.025.845-1.213a9.585 9.585 0 0 1 3.514-.571c1.71 0 2.94.468 3.725 1.227.784.759 1.193 2.033 1.193 3.508v5.002c0 .401-.16.785-.447 1.067a1.505 1.505 0 0 1-1.075.432 1.408 1.408 0 0 1-1.503-1.293 4.234 4.234 0 0 1-3.33 1.406c-2.082-.029-3.791-1.223-3.791-3.396zm7.177-.717v-.553a4.832 4.832 0 0 0-1.996-.412c-1.334 0-2.156.534-2.156 1.518v.042c0 .843.7 1.335 1.705 1.335 1.46 0 2.447-.801 2.447-1.93zM33.784 49.129v-.066a2.03 2.03 0 0 1 .7-1.517l5.12-5.62h-4.36a1.266 1.266 0 0 1-1.277-1.252 1.28 1.28 0 0 1 1.278-1.269h6.844c.888 0 1.522.51 1.522 1.25v.062a2.04 2.04 0 0 1-.695 1.517l-5.168 5.62h4.59a1.28 1.28 0 0 1 1.273 1.275 1.258 1.258 0 0 1-1.273 1.25h-7.046c-.874 0-1.508-.515-1.508-1.25z"/>
            <path d="M48.999 50.623c-3.288 0-5.755-2.342-5.755-5.682v-.037c0-3.138 2.241-5.724 5.45-5.724 3.682 0 5.303 3.017 5.303 5.293a1.411 1.411 0 0 1-1.456 1.494h-6.192a2.554 2.554 0 0 0 2.692 2.155 3.61 3.61 0 0 0 2.222-.74c.217-.168.486-.255.76-.244a1.195 1.195 0 0 1 1.213 1.232 1.23 1.23 0 0 1-.409.937A5.732 5.732 0 0 1 49 50.623zm2.02-6.604c-.188-1.405-1.01-2.342-2.35-2.342-1.338 0-2.104.946-2.362 2.351l4.712-.01z"/>
        </g>
        <g stroke="#FFF" stroke-width="4.34" opacity=".5" transform="translate(15.092 7.963)">
            <path d="M1.287 17.869a.808.808 0 0 1 .71-.469c2.569 0 2.898-1.91 3.137-5.053a19.92 19.92 0 0 1 .254-2.263 10.114 10.114 0 0 1 3.838-6A13.643 13.643 0 0 1 15.75 1.33a12.836 12.836 0 0 1 12.006 5.026 10.5 10.5 0 0 1 1.466 9.69c-.996 3.013-3.758 5.743-7.018 6.961-1.841.684-3.885.778-5.858.778-.145 0-10.207.955-14.985-5.05a.836.836 0 0 1-.075-.866z"/>
            <path stroke-linejoin="round" d="M17.451 2.01c7.13 0 13.477 6.346 11.02 13.789-.99 2.997-3.758 5.428-6.543 6.468-1.823.684-3.955.632-5.58.632H14.99c-4.087 0-9.729-.468-12.994-4.768 4.472 0 3.59-4.965 4.167-7.92.883-4.506 5.355-7.522 9.691-8.108.53-.066 1.063-.097 1.597-.094m0-1.578c-.605 0-1.209.041-1.808.122a14.387 14.387 0 0 0-6.91 2.913 10.905 10.905 0 0 0-4.12 6.468 20.79 20.79 0 0 0-.268 2.342c-.094 1.242-.192 2.52-.587 3.359-.272.576-.672.936-1.762.936-.6 0-1.149.34-1.417.875a1.575 1.575 0 0 0 .154 1.655c3.687 4.88 9.902 5.405 14.257 5.405h1.357c2.03 0 4.176-.09 6.135-.82a13.196 13.196 0 0 0 4.49-2.834 11.449 11.449 0 0 0 3.003-4.608c.615-1.807.776-3.737.47-5.621a11.308 11.308 0 0 0-2.04-4.796 13.223 13.223 0 0 0-4.74-3.986A13.9 13.9 0 0 0 17.46.365l-.009.066z"/>
            <path d="M12.913 24.122a3.164 3.164 0 0 1-1.703 3.08 3.183 3.183 0 0 1-3.507-.39 3.16 3.16 0 0 1-.98-3.38 3.174 3.174 0 0 1 2.756-2.195c.84-.073 1.674.19 2.318.732a3.159 3.159 0 0 1 1.116 2.153z"/>
            <ellipse cx="9.785" cy="24.356" rx="1" ry="1.026"/>
            <path d="M23.807 24.122a3.169 3.169 0 0 1-2.893 3.424 3.173 3.173 0 0 1-3.435-2.883 3.169 3.169 0 0 1 2.89-3.426 3.177 3.177 0 0 1 3.438 2.885z"/>
            <path d="M21.566 24.356a.897.897 0 0 1-1.785-.163.896.896 0 0 1 .888-.858c.53.037.93.493.897 1.021zM15.417 9.869a1.52 1.52 0 0 1-1.522 1.517 1.52 1.52 0 0 1-1.522-1.517 1.52 1.52 0 0 1 1.522-1.518c.84 0 1.522.68 1.522 1.518zM22.515 9.869c0 .614-.37 1.167-.94 1.402a1.525 1.525 0 0 1-1.658-.33 1.514 1.514 0 0 1-.33-1.653 1.522 1.522 0 0 1 2.928.58zM17.38 17.99c-2.574 0-4.894-1.68-5.317-3.887a.794.794 0 1 1 1.56-.295c.249 1.293 1.803 2.656 3.875 2.604 2.16-.056 3.589-1.344 3.88-2.585a.79.79 0 0 1 1.312-.395.788.788 0 0 1 .229.755 4.684 4.684 0 0 1-1.846 2.647 6.26 6.26 0 0 1-3.533 1.157h-.16z"/>
        </g>
        <path fill="url(#a)" fill-rule="nonzero" d="M16.38 25.831a.808.808 0 0 1 .709-.468c2.57 0 2.898-1.911 3.138-5.054a19.92 19.92 0 0 1 .253-2.262 10.114 10.114 0 0 1 3.838-6 13.643 13.643 0 0 1 6.525-2.754 12.836 12.836 0 0 1 12.007 5.026 10.5 10.5 0 0 1 1.465 9.69c-.995 3.012-3.758 5.743-7.018 6.96-1.841.684-3.884.778-5.857.778-.146 0-10.208.956-14.985-5.05a.836.836 0 0 1-.075-.866z"/>
        <path fill="#3E3E3E" fill-rule="nonzero" d="M32.544 9.972c7.13 0 13.477 6.347 11.02 13.79-.991 2.997-3.758 5.428-6.544 6.468-1.822.683-3.955.632-5.58.632h-1.358c-4.087 0-9.728-.469-12.993-4.768 4.472 0 3.589-4.965 4.166-7.92.884-4.507 5.356-7.523 9.691-8.108.53-.066 1.064-.098 1.598-.094m0-1.579c-.605.001-1.21.042-1.809.122a14.387 14.387 0 0 0-6.91 2.914 10.905 10.905 0 0 0-4.12 6.468 20.79 20.79 0 0 0-.267 2.342c-.094 1.241-.193 2.52-.588 3.358-.272.576-.671.937-1.761.937-.6 0-1.15.339-1.417.875a1.575 1.575 0 0 0 .153 1.654c3.688 4.88 9.902 5.405 14.257 5.405h1.358c2.029 0 4.176-.089 6.135-.82a13.196 13.196 0 0 0 4.49-2.833 11.449 11.449 0 0 0 3.002-4.609c.616-1.807.777-3.737.47-5.62a11.308 11.308 0 0 0-2.039-4.797 13.223 13.223 0 0 0-4.74-3.986c-1.925-.966-4.004-1.405-6.16-1.41h-.054z"/>
        <path fill="#3E3E3E" fill-rule="nonzero" d="M28.006 32.084a3.164 3.164 0 0 1-1.704 3.081 3.183 3.183 0 0 1-3.506-.39 3.16 3.16 0 0 1-.98-3.38 3.174 3.174 0 0 1 2.756-2.196c.84-.073 1.673.19 2.317.732a3.159 3.159 0 0 1 1.117 2.153z"/>
        <ellipse cx="24.877" cy="32.319" fill="#525353" fill-rule="nonzero" rx="1" ry="1.026"/>
        <path fill="#3E3E3E" fill-rule="nonzero" d="M38.9 32.084a3.169 3.169 0 0 1-2.893 3.424 3.173 3.173 0 0 1-3.436-2.882 3.169 3.169 0 0 1 2.89-3.427 3.177 3.177 0 0 1 3.438 2.885z"/>
        <path fill="#525353" fill-rule="nonzero" d="M36.658 32.319a.897.897 0 0 1-1.784-.163.896.896 0 0 1 .887-.859c.53.038.93.493.897 1.022z"/>
        <g fill="#3E3E3E" fill-rule="nonzero">
            <path d="M30.51 17.831a1.52 1.52 0 0 1-1.522 1.518 1.52 1.52 0 0 1-1.522-1.518 1.52 1.52 0 0 1 1.522-1.517c.84 0 1.522.68 1.522 1.517zM37.607 17.831c0 .614-.37 1.168-.94 1.402a1.525 1.525 0 0 1-1.658-.329 1.514 1.514 0 0 1-.33-1.653 1.522 1.522 0 0 1 2.928.58zM32.473 25.953c-2.574 0-4.895-1.681-5.317-3.887a.794.794 0 1 1 1.56-.295c.248 1.292 1.803 2.655 3.874 2.604 2.161-.056 3.59-1.345 3.88-2.586a.79.79 0 0 1 1.313-.395.788.788 0 0 1 .228.756 4.684 4.684 0 0 1-1.846 2.646 6.26 6.26 0 0 1-3.532 1.157h-.16z"/>
        </g>
    </g>
</svg>
