<svg xmlns="http://www.w3.org/2000/svg" xmlns:xlink="http://www.w3.org/1999/xlink" width="150.123" height="47.026" viewBox="0 0 150.123 47.026"><defs><style>.a{fill:url(#a);}.b,.f{fill:#fff;}.c{fill:#d2e5f1;}.d{fill:#b5cfe4;}.e,.f{fill-rule:evenodd;}.e{fill:url(#b);}.g{fill:url(#c);}.h{fill:url(#d);}</style><linearGradient id="a" x1="0.5" x2="0.5" y2="0.996" gradientUnits="objectBoundingBox"><stop offset="0" stop-color="#42bce8"/><stop offset="1" stop-color="#23a7dc"/></linearGradient><linearGradient id="b" x1="0.5" x2="0.5" y2="1" gradientUnits="objectBoundingBox"><stop offset="0" stop-color="#00b2ff"/><stop offset="1" stop-color="#006aff"/></linearGradient><linearGradient id="c" x1="0.499" y1="0.039" x2="0.499" y2="1.035" gradientUnits="objectBoundingBox"><stop offset="0" stop-color="#20b038"/><stop offset="1" stop-color="#60d66a"/></linearGradient><linearGradient id="d" x1="0.5" y1="0.034" x2="0.5" y2="1.034" gradientUnits="objectBoundingBox"><stop offset="0" stop-color="#f9f9f9"/><stop offset="1" stop-color="#fff"/></linearGradient></defs><g transform="translate(0 0)"><g transform="translate(103.1)"><ellipse class="a" cx="21.246" cy="21.248" rx="21.246" ry="21.248" transform="translate(0 4.803) rotate(-6.49)"/><path class="b" d="M28.982,15,26.215,28.8a1,1,0,0,1-1.439.5l-6.324-4.856-2.3-1.109L12.279,22s-.586-.22-.649-.68.67-.709.67-.709l15.395-5.994s1.288-.564,1.288.385Z" transform="translate(1.139 2.298)"/><path class="c" d="M18,28.637s-.18,0-.41-.733-1.4-4.566-1.4-4.566l9.291-5.9s.539-.33.52,0c0,0,.1.06-.19.33l-7.3,6.574" transform="translate(1.817 2.822)"/><path class="d" d="M20.887,26.309,18.38,28.6a.419.419,0,0,1-.41,0l.484-4.236" transform="translate(1.172 4.141)"/></g><g transform="translate(53.703 2.127)"><path class="e" d="M21.02,0C9.178,0,0,8.674,0,20.39A19.948,19.948,0,0,0,6.6,35.472a1.694,1.694,0,0,1,.567,1.2l.114,3.739A1.684,1.684,0,0,0,9.643,41.9l4.17-1.84a1.677,1.677,0,0,1,1.121-.085,22.862,22.862,0,0,0,6.086.808c11.842,0,21.02-8.674,21.02-20.39S32.862,0,21.02,0Z"/><path class="f" d="M11.167,30.292,17.462,20.1a3.179,3.179,0,0,1,4.648-.875l5.006,3.832a1.267,1.267,0,0,0,1.548,0l6.76-5.235A1.026,1.026,0,0,1,36.9,19.2l-6.29,10.184a3.179,3.179,0,0,1-4.648.875l-5.006-3.832a1.267,1.267,0,0,0-1.548,0l-6.765,5.239A1.026,1.026,0,0,1,11.167,30.292Z" transform="translate(-2.592 -4.147)"/></g><g transform="translate(0 1.064)"><g transform="translate(0 0)"><path class="b" d="M0,44.035l3.093-11.3a21.819,21.819,0,1,1,18.9,10.918h0a21.74,21.74,0,0,1-10.419-2.629Zm12.1-7.01.657.394a18.148,18.148,0,0,0,9.236,2.559h0a18.148,18.148,0,1,0-15.352-8.5l.429.692L5.258,38.856Z" transform="translate(0 -0.019)"/></g><path class="g" d="M.87,43.36l2.988-10.91A21.118,21.118,0,1,1,22.1,42.966h0A20.925,20.925,0,0,1,12.034,40.4Z" transform="translate(-0.108 -0.107)"/><g transform="translate(0 0)"><path class="h" d="M0,44.035l3.093-11.3a21.819,21.819,0,1,1,18.9,10.918h0a21.74,21.74,0,0,1-10.419-2.629Zm12.1-7.01.657.394a18.148,18.148,0,0,0,9.236,2.559h0a18.148,18.148,0,1,0-15.352-8.5l.429.692L5.258,38.856Z" transform="translate(0 -0.019)"/></g><g transform="translate(10.909 11.76)"><path class="f" d="M18.084,14.378c-.4-.876-.832-.929-1.227-.938H15.815a2.007,2.007,0,0,0-1.455.683,6.134,6.134,0,0,0-1.91,4.548c0,2.681,1.954,5.258,2.226,5.634s3.777,6.046,9.315,8.228c4.609,1.814,5.538,1.455,6.546,1.367s3.225-1.323,3.672-2.629a4.662,4.662,0,0,0,.324-2.629c-.14-.228-.5-.359-1.052-.631s-3.225-1.595-3.724-1.753-.876-.272-1.227.272a25.527,25.527,0,0,1-1.753,2.138c-.315.368-.631.412-1.174.14A14.9,14.9,0,0,1,21.221,26.1a16.7,16.7,0,0,1-3.032-3.75.815.815,0,0,1,.245-1.113c.245-.237.543-.631.815-.946a3.952,3.952,0,0,0,.543-.876,1,1,0,0,0,0-.955C19.627,18.154,18.575,15.455,18.084,14.378Z" transform="translate(-12.449 -13.44)"/></g></g></g></svg>