<svg xmlns="http://www.w3.org/2000/svg" xmlns:xlink="http://www.w3.org/1999/xlink" width="207" height="47.026" viewBox="0 0 207 47.026"><defs><style>.a{fill:url(#a);}.b,.f{fill:#fff;}.c{fill:#d2e5f1;}.d{fill:#b5cfe4;}.e,.f,.k,.l{fill-rule:evenodd;}.e{fill:url(#b);}.g{fill:url(#c);}.h{fill:url(#d);}.i{fill:#79d0e9;}.j{opacity:0.5;}.k,.l,.m{fill:none;stroke:#fff;stroke-width:4.34px;}.l{stroke-linejoin:round;}.n{fill:url(#e);}.o{fill:#3e3e3e;}.p{fill:#525353;}</style><linearGradient id="a" x1="0.5" x2="0.5" y2="0.996" gradientUnits="objectBoundingBox"><stop offset="0" stop-color="#42bce8"/><stop offset="1" stop-color="#23a7dc"/></linearGradient><linearGradient id="b" x1="0.5" x2="0.5" y2="1" gradientUnits="objectBoundingBox"><stop offset="0" stop-color="#00b2ff"/><stop offset="1" stop-color="#006aff"/></linearGradient><linearGradient id="c" x1="0.499" y1="0.039" x2="0.499" y2="1.035" gradientUnits="objectBoundingBox"><stop offset="0" stop-color="#20b038"/><stop offset="1" stop-color="#60d66a"/></linearGradient><linearGradient id="d" x1="0.5" y1="0.034" x2="0.5" y2="1.034" gradientUnits="objectBoundingBox"><stop offset="0" stop-color="#f9f9f9"/><stop offset="1" stop-color="#fff"/></linearGradient><radialGradient id="e" cx="0.595" cy="0.188" r="0.935" gradientTransform="matrix(-0.009, 1, -0.791, -0.011, 0.749, -0.405)" gradientUnits="objectBoundingBox"><stop offset="0.05" stop-color="#f5f6f7"/><stop offset="0.74" stop-color="#f1f9fb"/><stop offset="1" stop-color="#eeeff1"/></radialGradient></defs><g transform="translate(-206 -529.64)"><g transform="translate(206 529.64)"><g transform="translate(103.1 0)"><ellipse class="a" cx="21.246" cy="21.248" rx="21.246" ry="21.248" transform="matrix(0.994, -0.113, 0.113, 0.994, 0, 4.803)"/><path class="b" d="M28.982,15,26.215,28.8a1,1,0,0,1-1.439.5l-6.324-4.856-2.3-1.109L12.279,22s-.586-.22-.649-.68.67-.709.67-.709l15.395-5.994s1.288-.564,1.288.385Z" transform="translate(1.139 2.298)"/><path class="c" d="M18,28.637s-.18,0-.41-.733-1.4-4.566-1.4-4.566l9.291-5.9s.539-.33.52,0c0,0,.1.06-.19.33l-7.3,6.574" transform="translate(1.817 2.822)"/><path class="d" d="M20.887,26.309,18.38,28.6a.419.419,0,0,1-.41,0l.484-4.236" transform="translate(1.172 4.141)"/></g><g transform="translate(53.703 2.127)"><path class="e" d="M21.02,0C9.178,0,0,8.674,0,20.39A19.948,19.948,0,0,0,6.6,35.472a1.694,1.694,0,0,1,.567,1.2l.114,3.739A1.684,1.684,0,0,0,9.643,41.9l4.17-1.84a1.677,1.677,0,0,1,1.121-.085,22.862,22.862,0,0,0,6.086.808c11.842,0,21.02-8.674,21.02-20.39S32.862,0,21.02,0Z"/><path class="f" d="M11.167,30.292,17.462,20.1a3.179,3.179,0,0,1,4.648-.875l5.006,3.832a1.267,1.267,0,0,0,1.548,0l6.76-5.235A1.026,1.026,0,0,1,36.9,19.2l-6.29,10.184a3.179,3.179,0,0,1-4.648.875l-5.006-3.832a1.267,1.267,0,0,0-1.548,0l-6.765,5.239A1.026,1.026,0,0,1,11.167,30.292Z" transform="translate(-2.592 -4.147)"/></g><g transform="translate(0 1.064)"><g transform="translate(0 0)"><path class="b" d="M0,44.035l3.093-11.3a21.819,21.819,0,1,1,18.9,10.918h0a21.74,21.74,0,0,1-10.419-2.629Zm12.1-7.01.657.394a18.148,18.148,0,0,0,9.236,2.559h0a18.148,18.148,0,1,0-15.352-8.5l.429.692L5.258,38.856Z" transform="translate(0 -0.019)"/></g><path class="g" d="M.87,43.36l2.988-10.91A21.118,21.118,0,1,1,22.1,42.966h0A20.925,20.925,0,0,1,12.034,40.4Z" transform="translate(-0.108 -0.107)"/><g transform="translate(0 0)"><path class="h" d="M0,44.035l3.093-11.3a21.819,21.819,0,1,1,18.9,10.918h0a21.74,21.74,0,0,1-10.419-2.629Zm12.1-7.01.657.394a18.148,18.148,0,0,0,9.236,2.559h0a18.148,18.148,0,1,0-15.352-8.5l.429.692L5.258,38.856Z" transform="translate(0 -0.019)"/></g><g transform="translate(10.909 11.76)"><path class="f" d="M18.084,14.378c-.4-.876-.832-.929-1.227-.938H15.815a2.007,2.007,0,0,0-1.455.683,6.134,6.134,0,0,0-1.91,4.548c0,2.681,1.954,5.258,2.226,5.634s3.777,6.046,9.315,8.228c4.609,1.814,5.538,1.455,6.546,1.367s3.225-1.323,3.672-2.629a4.662,4.662,0,0,0,.324-2.629c-.14-.228-.5-.359-1.052-.631s-3.225-1.595-3.724-1.753-.876-.272-1.227.272a25.527,25.527,0,0,1-1.753,2.138c-.315.368-.631.412-1.174.14A14.9,14.9,0,0,1,21.221,26.1a16.7,16.7,0,0,1-3.032-3.75.815.815,0,0,1,.245-1.113c.245-.237.543-.631.815-.946a3.952,3.952,0,0,0,.543-.876,1,1,0,0,0,0-.955C19.627,18.154,18.575,15.455,18.084,14.378Z" transform="translate(-12.449 -13.44)"/></g></g></g><g transform="translate(365.326 532.445)"><rect class="i" width="47" height="43" rx="10.03" transform="translate(0.674 -0.445)"/><g transform="translate(5.681 30.094)"><path class="b" d="M9.371,46.876,7.3,40.929a2.046,2.046,0,0,1-.108-.583,1.1,1.1,0,0,1,1.151-1.079,1.194,1.194,0,0,1,1.169.928l1.3,4.279L12.135,40.2a1.27,1.27,0,0,1,1.231-.96h.144a1.264,1.264,0,0,1,1.23.96l1.347,4.285,1.324-4.317a1.179,1.179,0,0,1,1.155-.914,1.081,1.081,0,0,1,1.121,1.1,2.028,2.028,0,0,1-.079.489l-2.132,6.03a1.409,1.409,0,0,1-1.328,1.08h-.079a1.32,1.32,0,0,1-1.3-1.022L13.43,42.677,12.07,46.93a1.32,1.32,0,0,1-1.3,1.025H10.7a1.379,1.379,0,0,1-1.327-1.08Zm10.078-1.507V45.34c0-1.845,1.407-2.695,3.413-2.695a6.016,6.016,0,0,1,2.068.36v-.141c0-.993-.614-1.544-1.8-1.544a5.456,5.456,0,0,0-1.659.238,1.006,1.006,0,0,1-.361.061.979.979,0,0,1-.989-.99.994.994,0,0,1,.649-.932,7.363,7.363,0,0,1,2.7-.439,3.989,3.989,0,0,1,2.861.943,3.729,3.729,0,0,1,.916,2.695v3.842a1.153,1.153,0,0,1-1.169,1.151,1.082,1.082,0,0,1-1.155-.993,3.252,3.252,0,0,1-2.558,1.08,2.651,2.651,0,0,1-2.912-2.609Zm5.513-.551v-.425a3.712,3.712,0,0,0-1.533-.316c-1.025,0-1.656.41-1.656,1.166v.032c0,.648.538,1.025,1.31,1.025C24.2,46.3,24.962,45.685,24.962,44.818Zm2.656,2.019v-.051a1.559,1.559,0,0,1,.538-1.165L32.089,41.3H28.74a.972.972,0,0,1-.981-.962.983.983,0,0,1,.982-.975H34c.682,0,1.169.392,1.169.96v.048a1.567,1.567,0,0,1-.534,1.165l-3.97,4.317h3.526a.983.983,0,0,1,.978.979.966.966,0,0,1-.978.96H28.777a1.032,1.032,0,0,1-1.158-.96Z" transform="translate(-7.192 -39.194)"/><path class="b" d="M47.665,47.97a4.248,4.248,0,0,1-4.421-4.365v-.028a4.21,4.21,0,0,1,4.186-4.4A4,4,0,0,1,51.5,43.246a1.084,1.084,0,0,1-1.118,1.148H45.629A1.962,1.962,0,0,0,47.7,46.049,2.773,2.773,0,0,0,49.4,45.48a.9.9,0,0,1,.584-.187.918.918,0,0,1,.932.946.945.945,0,0,1-.314.72,4.4,4.4,0,0,1-2.94,1.011ZM49.216,42.9a1.817,1.817,0,0,0-1.805-1.8c-1.028,0-1.616.727-1.814,1.806l3.619-.008Z" transform="translate(-15.551 -39.18)"/></g><g class="j" transform="translate(12.066 6.395)"><path class="k" d="M1.267,14.007a.621.621,0,0,1,.545-.36c1.973,0,2.226-1.467,2.41-3.881a15.3,15.3,0,0,1,.2-1.738A7.769,7.769,0,0,1,7.365,3.418,10.48,10.48,0,0,1,12.376,1.3,9.86,9.86,0,0,1,21.6,5.163a8.065,8.065,0,0,1,1.126,7.443,9.129,9.129,0,0,1-5.391,5.347,12.957,12.957,0,0,1-4.5.6c-.111,0-7.84.734-11.511-3.879a.642.642,0,0,1-.058-.665Z" transform="translate(-0.595 -0.562)"/><path class="l" d="M13.5,1.629c5.477,0,10.352,4.875,8.465,10.592a8.549,8.549,0,0,1-5.026,4.968,12.362,12.362,0,0,1-4.286.485H11.61c-3.139,0-7.473-.359-9.981-3.662,3.435,0,2.758-3.814,3.2-6.084C5.508,4.467,8.943,2.15,12.274,1.7A9.491,9.491,0,0,1,13.5,1.628m0-1.212a10.364,10.364,0,0,0-1.389.094A11.051,11.051,0,0,0,6.8,2.747,8.377,8.377,0,0,0,3.639,7.715a15.97,15.97,0,0,0-.206,1.8,8.143,8.143,0,0,1-.451,2.58c-.209.442-.516.719-1.353.719a1.212,1.212,0,0,0-.97,1.943c2.832,3.749,7.606,4.152,10.951,4.152h1.042a13.488,13.488,0,0,0,4.713-.63A10.136,10.136,0,0,0,20.814,16.1a8.794,8.794,0,0,0,2.307-3.54,8.948,8.948,0,0,0,.361-4.318,8.686,8.686,0,0,0-1.567-3.684A10.157,10.157,0,0,0,18.274,1.5,10.677,10.677,0,0,0,13.508.365L13.5.416Z" transform="translate(-0.413 -0.365)"/><path class="k" d="M11.443,23.45a2.433,2.433,0,1,1-.857-1.654,2.43,2.43,0,0,1,.857,1.654Z" transform="translate(-1.842 -5.202)"/><ellipse class="m" cx="0.768" cy="0.788" rx="0.768" ry="0.788" transform="translate(6.431 17.64)"/><path class="k" d="M22.337,23.45A2.439,2.439,0,1,1,19.7,21.234a2.434,2.434,0,0,1,2.641,2.216Z" transform="translate(-4.367 -5.202)"/><path class="k" d="M19.359,20.645a.689.689,0,1,1-.689-.784A.741.741,0,0,1,19.359,20.645ZM14.636,9.516A1.169,1.169,0,1,1,13.467,8.35,1.168,1.168,0,0,1,14.636,9.516Zm5.452,0a1.169,1.169,0,1,1-.942-1.145,1.164,1.164,0,0,1,.942,1.145Zm-3.944,6.238a4.073,4.073,0,0,1-4.084-2.986.61.61,0,1,1,1.2-.227,2.892,2.892,0,0,0,2.976,2,3,3,0,0,0,2.98-1.986.608.608,0,0,1,1.184.277,3.6,3.6,0,0,1-1.418,2.033,4.809,4.809,0,0,1-2.714.889h-.123Z" transform="translate(-3.111 -2.216)"/></g><path class="n" d="M16.36,21.969a.621.621,0,0,1,.545-.359c1.974,0,2.226-1.468,2.41-3.882a15.3,15.3,0,0,1,.194-1.738,7.769,7.769,0,0,1,2.948-4.609,10.48,10.48,0,0,1,5.012-2.115,9.86,9.86,0,0,1,9.223,3.861,8.065,8.065,0,0,1,1.125,7.443,9.125,9.125,0,0,1-5.391,5.346,12.953,12.953,0,0,1-4.5.6c-.112,0-7.841.734-11.511-3.879a.642.642,0,0,1-.058-.665Z" transform="translate(-3.621 -2.13)"/><path class="o" d="M28.594,9.606c5.477,0,10.352,4.875,8.465,10.593a8.55,8.55,0,0,1-5.027,4.968,12.378,12.378,0,0,1-4.286.485H26.7c-3.139,0-7.472-.36-9.98-3.662,3.435,0,2.757-3.814,3.2-6.084.679-3.462,4.114-5.779,7.444-6.228a9.368,9.368,0,0,1,1.227-.072m0-1.213a10.636,10.636,0,0,0-1.39.094A11.051,11.051,0,0,0,21.9,10.725a8.377,8.377,0,0,0-3.165,4.968,15.97,15.97,0,0,0-.205,1.8,8.137,8.137,0,0,1-.452,2.579c-.209.442-.515.72-1.353.72a1.212,1.212,0,0,0-.971,1.943c2.833,3.749,7.606,4.152,10.951,4.152h1.043a13.473,13.473,0,0,0,4.713-.63,10.136,10.136,0,0,0,3.449-2.176,8.794,8.794,0,0,0,2.306-3.54,8.927,8.927,0,0,0,.361-4.317,8.686,8.686,0,0,0-1.566-3.685,10.157,10.157,0,0,0-3.641-3.062,10.488,10.488,0,0,0-4.732-1.083Z" transform="translate(-3.439 -1.948)"/><path class="o" d="M26.536,31.412a2.434,2.434,0,1,1-.858-1.654,2.43,2.43,0,0,1,.858,1.654Z" transform="translate(-4.867 -6.769)"/><ellipse class="p" cx="0.768" cy="0.788" rx="0.768" ry="0.788" transform="translate(18.497 24.035)"/><path class="o" d="M37.43,31.412A2.44,2.44,0,1,1,34.788,29.2a2.434,2.434,0,0,1,2.642,2.216Z" transform="translate(-7.393 -6.769)"/><path class="p" d="M36.244,32.082a.689.689,0,1,1-.689-.785.741.741,0,0,1,.689.785Z" transform="translate(-7.929 -7.259)"/><g transform="translate(21.005 12.527)"><path class="o" d="M29.729,17.479a1.169,1.169,0,1,1-1.169-1.165A1.168,1.168,0,0,1,29.729,17.479Zm5.451,0a1.169,1.169,0,1,1-.942-1.145,1.164,1.164,0,0,1,.942,1.145Zm-3.944,6.239a4.073,4.073,0,0,1-4.084-2.986.61.61,0,1,1,1.2-.227,2.893,2.893,0,0,0,2.976,2,3,3,0,0,0,2.98-1.986.608.608,0,0,1,1.184.277,3.6,3.6,0,0,1-1.418,2.033,4.809,4.809,0,0,1-2.713.889h-.123Z" transform="translate(-27.142 -16.312)"/></g></g></g></svg>