<svg xmlns="http://www.w3.org/2000/svg" width="56" height="56" viewBox="0 0 56 56"><defs><style>.a{fill:#044491;}.b{fill:#ff1400;fill-rule:evenodd;}.c{fill:#01508c;}</style></defs><g transform="translate(-468 -1513)"><g transform="translate(-2)"><g transform="translate(-12851 3069)"><rect class="a" width="56" height="56" rx="13" transform="translate(13321 -1556)"/><g transform="translate(13218.3 -1704.04)"><path class="b" d="M131.154,161.1h16.623a1.74,1.74,0,0,1,1.758,1.718c-.04,1.079,0,2.2,0,3.277a1.632,1.632,0,0,1-1.478,1.558c-.44.04-.839.08-1.279.08H114.851a1.889,1.889,0,0,1-1.878-.959,1.792,1.792,0,0,1-.2-.759c-.04-1.079,0-2.118,0-3.2a1.688,1.688,0,0,1,1.678-1.678C120.006,161.1,125.6,161.1,131.154,161.1Z" transform="translate(-0.033 -0.06)"/><path class="b" d="M167.94,191.3h12.827a1.679,1.679,0,0,1,1.8,1.279,2.457,2.457,0,0,1,.04.559v3.117a1.63,1.63,0,0,1-1.6,1.6H167.9C167.94,195.7,167.94,193.5,167.94,191.3Z" transform="translate(-33.143 -18.193)"/><path class="b" d="M167.9,228.113V221.6h12.787a1.7,1.7,0,0,1,1.838,1.239,2.339,2.339,0,0,1,.08.519v3.2a1.682,1.682,0,0,1-1.6,1.558H167.9Z" transform="translate(-33.143 -36.385)"/><path class="b" d="M127.445,221.585v6.553H114.458a1.715,1.715,0,0,1-1.758-1.718v-3.157a1.672,1.672,0,0,1,1.638-1.638h12.827C127.245,221.545,127.325,221.585,127.445,221.585Z" transform="translate(0 -36.37)"/><path class="b" d="M127.5,197.853H114.636a1.833,1.833,0,0,1-1.838-1.838c.04-1,0-2.038,0-3.037a1.737,1.737,0,0,1,1.638-1.678H127.5Z" transform="translate(-0.058 -18.193)"/></g></g></g></g></svg>