<svg xmlns="http://www.w3.org/2000/svg" width="60.73" height="43.581" viewBox="0 0 60.73 43.581"><defs><style>.a{fill:#fff;stroke:#fff;stroke-width:1.2px;}</style></defs><g transform="translate(0.619 0.729)"><path class="a" d="M59.51,31.995c-.136.678-.218,1.369-.42,2.027a11.057,11.057,0,0,1-8.882,8.089,7.938,7.938,0,0,1-1.613.136c-11.834,0-23.665.054-35.493-.023a12.792,12.792,0,0,1-9.583-4.488A13.135,13.135,0,0,1,.154,30.549,13.325,13.325,0,0,1,2.706,20.476a13.484,13.484,0,0,1,8.789-5.355,7.578,7.578,0,0,1,1.381-.13c.374,0,.513-.136.624-.482A20.455,20.455,0,0,1,28.236.749a20.186,20.186,0,0,1,19.5,4.927,20.211,20.211,0,0,1,6.385,11.377c.284,1.418.264,2.886.408,4.329a1.055,1.055,0,0,0,.284.68,11.057,11.057,0,0,1,4.6,7.879.7.7,0,0,0,.1.2ZM30.92,39.814H48.237a9.994,9.994,0,0,0,2.186-.241,8.729,8.729,0,0,0,6.521-9.923,8.44,8.44,0,0,0-4.088-5.925,1.488,1.488,0,0,1-.8-1.474,25,25,0,0,0-.088-3.022A17.354,17.354,0,0,0,47.758,9.221,18.122,18.122,0,0,0,30.68,2.728,17.861,17.861,0,0,0,20.19,8.086a18.57,18.57,0,0,0-4.726,8.4,1.2,1.2,0,0,1-1.307.978A19.514,19.514,0,0,0,11,17.777a11.167,11.167,0,0,0,2.654,22.04Z" transform="translate(0.001 0.004)"/><path class="a" d="M9.882,9.982V15.4c0,1.077-.473,1.664-1.367,1.673s-1.42-.632-1.42-1.7V9.98H6.437c-1.576,0-3.153.017-4.729,0A2.373,2.373,0,0,1,.574,9.671a1.375,1.375,0,0,1,.763-2.495H7.095V1.591A1.418,1.418,0,0,1,8.512,0,1.457,1.457,0,0,1,9.9,1.613c-.057,1.625,0,3.235-.026,4.876,0,.513.119.7.666.686,1.619-.037,3.223.028,4.862-.028a1.424,1.424,0,1,1-.026,2.824c-1.792.02-3.586.011-5.5.011Z" transform="translate(25.632 14.633)"/></g></svg>