<?xml version="1.0" encoding="UTF-8"?>
<svg width="84px" height="84px" viewBox="0 0 84 84" version="1.1" xmlns="http://www.w3.org/2000/svg" xmlns:xlink="http://www.w3.org/1999/xlink">
    <!-- Generator: Sketch 59.1 (86144) - https://sketch.com -->
    <title>ic_Deezer</title>
    <desc>Created with Sketch.</desc>
    <defs>
        <polygon id="path-1" points="0 0 83.9999 0 83.9999 84 0 84"></polygon>
        <polygon id="path-3" points="0 84 84 84 84 0 0 0"></polygon>
    </defs>
    <g id="Layout" stroke="none" stroke-width="1" fill="none" fill-rule="evenodd">
        <g id="HomeControle_Desktop_1366+-Copy-4" transform="translate(-978.000000, -2667.000000)">
            <g id="Clientes" transform="translate(0.000000, 2410.000000)">
                <g id="Pacotes" transform="translate(248.000000, 159.000000)">
                    <g id="Deezer" transform="translate(675.000000, 98.000000)">
                        <g id="ic_Deezer" transform="translate(55.000000, 0.000000)">
                            <g>
                                <g id="Group-3">
                                    <mask id="mask-2" fill="white">
                                        <use xlink:href="#path-1"></use>
                                    </mask>
                                    <g id="Clip-2"></g>
                                    <path d="M83.9999,65.597 C83.9999,75.719 75.7189,84 65.5979,84 L18.4029,84 C8.2809,84 -0.0001,75.719 -0.0001,65.597 L-0.0001,18.403 C-0.0001,8.281 8.2809,0 18.4029,0 L65.5979,0 C75.7189,0 83.9999,8.281 83.9999,18.403 L83.9999,65.597 Z" id="Fill-1" fill="#00528E" mask="url(#mask-2)"></path>
                                </g>
                                <path d="M83.9686,44.619 L57.8556,14.651 C57.8556,14.651 44.2836,10.553 39.2846,10.651 C31.7996,10.8 20.9346,17.635 15.6726,26.231 C10.4106,34.827 10.7716,65.013 10.7716,65.013 L26.6216,84 L65.5976,84 C75.7186,84 83.9996,75.719 83.9996,65.597 L83.9996,61.968 C83.9646,61.153 83.9996,55.589 83.9686,44.619" id="Fill-4" fill="#00417E"></path>
                                <path d="M39.0028,65.4535 L28.6878,65.4535 C28.2978,65.4535 27.9458,65.6115 27.6898,65.8675 C27.4368,66.1225 27.2798,66.4745 27.2798,66.8615 L27.2798,69.2825 C27.2798,69.6695 27.4358,70.0195 27.6888,70.2745 C27.9428,70.5315 28.2968,70.6905 28.6878,70.6905 L39.0028,70.6905 L39.0028,65.4535 Z M56.1808,65.8715 C55.9258,65.6135 55.5708,65.4535 55.1798,65.4535 L44.8648,65.4535 L44.8648,70.6905 L55.1798,70.6905 C55.5708,70.6905 55.9248,70.5315 56.1798,70.2735 C56.4328,70.0185 56.5878,69.6695 56.5878,69.2825 L56.5878,66.8615 C56.5878,66.4755 56.4328,66.1255 56.1808,65.8715 L56.1808,65.8715 Z M56.1808,56.2485 C55.9258,55.9905 55.5708,55.8305 55.1798,55.8305 L44.8648,55.8305 L44.8648,61.0675 L55.1798,61.0675 C55.5708,61.0675 55.9248,60.9075 56.1798,60.6495 C56.4328,60.3955 56.5878,60.0455 56.5878,59.6595 L56.5878,57.2385 C56.5878,56.8525 56.4328,56.5025 56.1808,56.2485 L56.1808,56.2485 Z M39.0028,55.8305 L28.6878,55.8305 C28.2978,55.8305 27.9458,55.9885 27.6898,56.2445 C27.4368,56.4995 27.2798,56.8505 27.2798,57.2385 L27.2798,59.6595 C27.2798,60.0465 27.4358,60.3965 27.6888,60.6515 C27.9428,60.9085 28.2968,61.0675 28.6878,61.0675 L39.0028,61.0675 L39.0028,55.8305 Z M55.1798,51.4445 L28.6878,51.4445 C28.2968,51.4445 27.9428,51.2855 27.6888,51.0285 C27.4358,50.7735 27.2798,50.4235 27.2798,50.0365 L27.2788,47.6155 C27.2788,47.2275 27.4368,46.8755 27.6898,46.6205 C27.9458,46.3655 28.2978,46.2075 28.6878,46.2075 L55.1798,46.2065 C55.5708,46.2065 55.9258,46.3675 56.1808,46.6245 C56.4328,46.8795 56.5878,47.2295 56.5878,47.6155 L56.5878,50.0365 C56.5878,50.4225 56.4328,50.7725 56.1798,51.0265 C55.9248,51.2845 55.5708,51.4445 55.1798,51.4445 L55.1798,51.4445 Z" id="Fill-6" fill="#DE0022"></path>
                                <path d="M74.1288,41.9579 C73.6268,22.1359 58.7178,9.4449 42.2268,9.4449 C24.1008,9.4449 10.7618,23.9549 10.3158,41.9579 L13.2268,41.9579 C13.6708,25.3609 25.6948,11.9759 42.2268,11.9759 C58.7418,11.9759 70.7798,25.3609 71.2238,41.9579 L74.1288,41.9579 Z" id="Fill-8" fill="#00A0D6"></path>
                                <polygon id="Fill-10" fill="#00A0D6" points="71.224 41.9579 71.224 45.3549 74.129 47.8879 74.129 41.9579"></polygon>
                                <polygon id="Fill-12" fill="#00A0D6" points="13.2269 41.9579 13.2269 45.3549 10.3219 47.8879 10.3219 41.9579"></polygon>
                                <path d="M60.5682,72.2835 C60.5682,73.0795 61.2202,73.7295 62.0152,73.7295 L63.8412,73.7295 C64.6362,73.7295 65.2882,73.0795 65.2882,72.2835 L65.2882,44.5405 C65.2882,43.7455 64.6362,43.0945 63.8412,43.0945 L62.0152,43.0945 C61.2202,43.0945 60.5682,43.7455 60.5682,44.5405 L60.5682,72.2835 Z" id="Fill-14" fill="#00A0D6"></path>
                                <path d="M74.6342,49.4037 L74.6342,66.1297 C76.0032,65.5867 77.2452,64.7367 77.2452,63.7577 L77.2452,51.7667 C77.2452,50.8027 76.0032,49.9527 74.6342,49.4037" id="Fill-16" fill="#002040"></path>
                                <path d="M6.8031,51.7669 L6.8031,63.7649 C6.8031,64.7369 8.0461,65.5859 9.4141,66.1289 L9.4141,49.4039 C8.0461,49.9529 6.8031,50.8029 6.8031,51.7669" id="Fill-18" fill="#002040"></path>
                                <path d="M68.9574,44.6366 L65.2884,44.6366 L65.2884,72.2616 L68.9574,72.2616 C72.2524,72.2616 74.9174,70.1736 74.9174,67.6016 L74.9174,49.2966 C74.9174,46.7246 72.2524,44.6366 68.9574,44.6366" id="Fill-20" fill="#004F6C"></path>
                                <path d="M9.1322,49.2826 L9.1322,67.5356 C9.1322,70.0996 11.7882,72.1876 15.0782,72.1876 L18.7312,72.1876 L18.7312,44.6366 L15.0782,44.6366 C11.7882,44.6366 9.1322,46.7176 9.1322,49.2826" id="Fill-22" fill="#004F6C"></path>
                                <mask id="mask-4" fill="white">
                                    <use xlink:href="#path-3"></use>
                                </mask>
                                <g id="Clip-25"></g>
                                <polygon id="Fill-24" fill="#002040" mask="url(#mask-4)" points="65.288 72.261 66.554 72.261 66.554 44.636 65.288 44.636"></polygon>
                                <polygon id="Fill-26" fill="#002040" mask="url(#mask-4)" points="17.418 72.261 18.685 72.261 18.685 44.636 17.418 44.636"></polygon>
                                <path d="M18.454,72.2835 C18.454,73.0795 19.106,73.7295 19.9,73.7295 L21.727,73.7295 C22.522,73.7295 23.174,73.0795 23.174,72.2835 L23.174,44.5405 C23.174,43.7455 22.522,43.0945 21.727,43.0945 L19.9,43.0945 C19.106,43.0945 18.454,43.7455 18.454,44.5405 L18.454,72.2835 Z" id="Fill-27" fill="#00A0D6" mask="url(#mask-4)"></path>
                                <path d="M73.8983,41.9579 C73.3963,22.1359 58.4883,9.4449 41.9963,9.4449 C23.8703,9.4449 10.5313,23.9549 10.0853,41.9579 L12.9963,41.9579 C13.4403,25.3609 25.4643,11.9759 41.9963,11.9759 C58.5113,11.9759 70.5493,25.3609 70.9933,41.9579 L73.8983,41.9579 Z" id="Fill-28" fill="#00A0D6" mask="url(#mask-4)"></path>
                                <polygon id="Fill-29" fill="#00A0D6" mask="url(#mask-4)" points="70.9935 41.9579 70.9935 45.3549 73.8985 47.8879 73.8985 41.9579"></polygon>
                                <polygon id="Fill-30" fill="#00A0D6" mask="url(#mask-4)" points="12.9965 41.9579 12.9965 45.3549 10.0915 47.8879 10.0915 41.9579"></polygon>
                                <path d="M74.6342,49.4037 L74.6342,66.1297 C76.0032,65.5867 77.2452,64.7367 77.2452,63.7577 L77.2452,51.7667 C77.2452,50.8027 76.0032,49.9527 74.6342,49.4037" id="Fill-31" fill="#D0D2D3" mask="url(#mask-4)"></path>
                                <path d="M6.5726,51.7669 L6.5726,63.7649 C6.5726,64.7369 7.8156,65.5859 9.1836,66.1289 L9.1836,49.4039 C7.8156,49.9529 6.5726,50.8029 6.5726,51.7669" id="Fill-32" fill="#D0D2D3" mask="url(#mask-4)"></path>
                                <path d="M68.9574,44.6366 L65.2884,44.6366 L65.2884,72.2616 L68.9574,72.2616 C72.2524,72.2616 74.9174,70.1736 74.9174,67.6016 L74.9174,49.2966 C74.9174,46.7246 72.2524,44.6366 68.9574,44.6366" id="Fill-33" fill="#F0EEEE" mask="url(#mask-4)"></path>
                                <path d="M8.8549,49.2826 L8.8549,67.5356 C8.8549,70.0996 11.5109,72.1876 14.8009,72.1876 L18.4539,72.1876 L18.4539,44.6366 L14.8009,44.6366 C11.5109,44.6366 8.8549,46.7176 8.8549,49.2826" id="Fill-34" fill="#F0EEEE" mask="url(#mask-4)"></path>
                                <polygon id="Fill-35" fill="#D0D2D3" mask="url(#mask-4)" points="65.288 72.261 66.554 72.261 66.554 44.636 65.288 44.636"></polygon>
                                <polygon id="Fill-36" fill="#D0D2D3" mask="url(#mask-4)" points="17.188 72.261 18.454 72.261 18.454 44.636 17.188 44.636"></polygon>
                                <path d="M72.2416,27.3006 L71.7336,26.2766 C68.8596,20.4916 64.4426,15.7286 58.9396,12.4736 L58.9396,12.4646 L57.4846,11.6376 L57.4646,11.6576 C52.7116,9.1666 47.3796,7.8546 41.9966,7.8546 C36.4436,7.8546 31.2336,9.1236 26.4966,11.6326 L26.4876,11.6226 L26.0556,11.8726 C25.9906,11.9076 25.0466,12.4346 25.0466,12.4346 L25.0466,12.4606 C19.6176,15.7016 15.2206,20.4906 12.3126,26.3336 L11.8036,27.3576 L11.3046,28.3476 C11.1166,28.7206 11.2596,29.1756 11.6266,29.3736 L15.6596,31.5546 C16.0546,31.7686 16.5476,31.6016 16.7316,31.1916 L17.3366,29.8416 C19.4886,25.0366 22.7996,21.0166 26.9326,18.1766 L27.5026,17.8086 C31.8476,14.9936 36.7226,13.5666 41.9966,13.5666 C47.2646,13.5666 52.1396,14.9956 56.4826,17.8096 L56.9966,18.1426 C61.1586,20.9836 64.4886,25.0156 66.6496,29.8406 L67.2556,31.1936 C67.4376,31.6016 67.9296,31.7696 68.3246,31.5586 L72.4186,29.3666 C72.7836,29.1716 72.9296,28.7226 72.7496,28.3506 L72.2416,27.3006 Z" id="Fill-37" fill="#F0EEEE" mask="url(#mask-4)"></path>
                            </g>
                        </g>
                    </g>
                </g>
            </g>
        </g>
    </g>
</svg>