<svg xmlns="http://www.w3.org/2000/svg" width="52.999" height="46.707" viewBox="0 0 52.999 46.707"><defs><style>.a{fill:#fff;}</style></defs><g transform="translate(-916 -398)"><path class="a" d="M50.641,45.35c1.262.665,2.144,1.206,3.085,1.605a2.2,2.2,0,0,1,1.573,2.17,2.156,2.156,0,0,1-1.848,2.1,14.406,14.406,0,0,1-10.4-1.192,2.945,2.945,0,0,0-1.682-.317A17.822,17.822,0,0,1,26.7,45.707a39.9,39.9,0,0,1-3.344-3.724,18.03,18.03,0,0,1-10.453,3.222c-.525,0-1.048-.049-1.573-.093A1.925,1.925,0,0,1,9.4,43.479a2.214,2.214,0,0,1,1.09-2.438c1.237-.835,2.431-1.736,3.5-2.508A59.3,59.3,0,0,1,7.96,33.175a15.659,15.659,0,0,1,2.452-23.037A24.523,24.523,0,0,1,41.5,10.99a17.089,17.089,0,0,1,4.886,7.623,1.489,1.489,0,0,0,.7.894,13.706,13.706,0,0,1,9.515,10.241,14.933,14.933,0,0,1-4.667,14.63,12.585,12.585,0,0,1-1.3.973ZM18.287,39.662l.261.338c1.206-.856,2.359-1.785,3.631-2.55a5.007,5.007,0,0,1,2.434-.875,21.033,21.033,0,0,0,11.94-3.185c7.558-4.888,8.4-13.921,1.836-19.556a20.533,20.533,0,0,0-26.313.488A11.2,11.2,0,0,0,10.76,29.985a16.3,16.3,0,0,0,6.634,4.94c1.951.849,2.333,1.92,1.356,3.838Zm27.956,7.233c-.754-2.305-.546-2.98,1.272-4.31a13.44,13.44,0,0,0,4.275-5.045,9.7,9.7,0,0,0-4.7-13.347c-2.014,10.488-9.305,14.968-19.173,16.632a10.587,10.587,0,0,0,.768.933A12.623,12.623,0,0,0,38.9,45.542c2.562-.156,5.215-1.085,7.348,1.365Z" transform="translate(911.996 393.005)"/></g></svg>